<svg width="32" height="32" viewBox="0 0 32 32" fill="none" xmlns="http://www.w3.org/2000/svg">
  <rect width="32" height="32" rx="8" fill="#0967D2"/>
  <path d="M16 8C12.13 8 9 11.13 9 15C9 17.662 10.375 19.992 12.469 21.281C12.719 21.441 13 21.275 13 20.969V19.375C13 19.168 12.869 18.982 12.674 18.9C11.675 18.475 11 17.525 11 16.5C11 15.119 12.119 14 13.5 14C14.881 14 16 15.119 16 16.5V24C16 24.55 16.45 25 17 25C17.55 25 18 24.55 18 24V16.5C18 15.119 19.119 14 20.5 14C21.881 14 23 15.119 23 16.5C23 17.525 22.325 18.475 21.326 18.9C21.131 18.982 21 19.168 21 19.375V20.969C21 21.275 21.281 21.441 21.531 21.281C23.625 19.992 25 17.662 25 15C25 11.13 21.87 8 18 8H16Z" fill="white"/>
</svg>